<svg xmlns="http://www.w3.org/2000/svg" width="107" height="106" viewBox="0 0 107 106">
  <g fill="none" fill-rule="evenodd" transform="translate(0 3)">
    <polygon stroke="#FFF" stroke-width="3" points="64.122 22.787 24.046 0 24.046 71.863 64.122 99.48 104.786 71.863 104.786 0"/>
    <g transform="translate(0 20.76)">
      <polygon fill="#84151E" points="76.222 51.899 40.878 16.55 5.535 51.899 .055 46.419 0 40.606 40.878 5.589 81.756 40.993 81.702 46.419"/>
      <polygon fill="#F00" points="76.269 46.31 40.878 10.96 5.487 46.31 0 40.83 40.878 0 81.756 40.83"/>
      <polygon fill="#84151E" points="76.222 82.24 40.878 46.891 5.535 82.24 .055 76.76 0 70.947 40.878 35.93 81.756 71.334 81.702 76.76"/>
      <polygon fill="#F00" points="76.269 77.45 40.878 42.1 5.487 77.45 0 71.969 40.878 31.14 81.756 71.969"/>
    </g>
  </g>
</svg>
