<svg xmlns="http://www.w3.org/2000/svg" width="107" height="105" viewBox="0 0 107 105">
  <g fill="none" fill-rule="evenodd" transform="translate(0 3)">
    <polygon stroke="#FFF" stroke-width="3" points="64.432 22.831 24.659 0 24.659 72.003 64.432 99.673 104.788 72.003 104.788 0"/>
    <g transform="translate(0 23.2)">
      <path fill="#84151E" d="M31.9074002,30.744845 C35.5075393,28.2369043 37.8631916,24.0845425 37.8631916,19.3823289 C37.8631916,11.7236112 34.6198273,5.13985857 26.92382,4.82105651 C15.6572484,4.35428922 9.96856867,11.7236112 9.96856867,19.3823289 C9.96856867,23.6971257 11.9500769,27.5512232 15.0577729,30.0946382 C6.28299143,33.2051754 0,41.536038 0,51.3292824 C0,57.8294837 45.3409091,57.2782315 45.3409091,51.3292824 C45.3409091,42.1521708 39.8221668,34.2619365 31.9074002,30.744845"/>
      <path fill="#F00" d="M35.8846729,29.9591945 C39.484812,27.4583092 41.8404644,23.3176289 41.8404644,18.6286435 C41.8404644,10.9914714 35.595967,4.8 27.8933876,4.8 C20.1898693,4.8 13.9458414,10.9914714 13.9458414,18.6286435 C13.9458414,22.9313019 15.9273497,26.774557 19.0350457,29.3108168 C10.2602642,32.4126034 3.97727273,40.7200295 3.97727273,50.4857236 C3.97727273,56.4216607 14.2120141,52.9698525 25.0307395,53.2295759 C36.838576,53.5125721 49.3181818,56.9643802 49.3181818,50.4857236 C49.3181818,41.334429 43.7994395,33.4663917 35.8846729,29.9591945"/>
      <path fill="#84151E" d="M48.5227273,52 C48.5227273,54.6510117 37.8385586,56.8 24.6590909,56.8 C11.4800854,56.8 0.795454545,54.6510117 0.795454545,52 C0.795454545,49.3489883 11.4800854,47.2 24.6590909,47.2 C37.8385586,47.2 48.5227273,49.3489883 48.5227273,52"/>
      <path fill="#84151E" d="M57.0089846,33.2285526 C61.5560665,30.0140035 64.5314779,24.6913692 64.5314779,18.6643236 C64.5314779,8.84749879 59.2894839,0 49.5593226,0 C37.4980975,0 29.2964644,8.84749879 29.2964644,18.6643236 C29.2964644,24.1947709 31.7996325,29.1345425 35.7250974,32.3949603 C24.6408316,36.3817875 16.7045455,47.0602875 16.7045455,59.613317 C16.7045455,67.9450276 73.9772727,67.2382762 73.9772727,59.613317 C73.9772727,47.8503514 67.0063485,37.7363165 57.0089846,33.2285526"/>
      <path fill="#F00" d="M60.9857935,32.4635328 C65.5333392,29.2366311 68.5087506,23.8935435 68.5087506,17.8433378 C68.5087506,7.98878987 60.6211733,0 50.891012,0 C41.1613145,0 33.2737372,7.98878987 33.2737372,17.8433378 C33.2737372,23.395037 35.7769053,28.3537906 39.7023701,31.6267372 C28.6181043,35.6288846 20.6818182,46.3484188 20.6818182,58.9496859 C20.6818182,66.6081741 33.6095959,62.1545048 47.2754278,62.489505 C62.1914521,62.8550451 77.9545455,67.3087144 77.9545455,58.9496859 C77.9545455,47.1415187 70.9836213,36.9886186 60.9857935,32.4635328"/>
      <path fill="#84151E" d="M77.9545455,60 C77.9545455,64.8599784 64.2433617,68.8 47.3295455,68.8 C30.4157292,68.8 16.7045455,64.8599784 16.7045455,60 C16.7045455,55.1400216 30.4157292,51.2 47.3295455,51.2 C64.2433617,51.2 77.9545455,55.1400216 77.9545455,60"/>
    </g>
  </g>
</svg>
