<?xml version="1.0" encoding="utf-8"?>
<!-- Generator: Adobe Illustrator 22.1.0, SVG Export Plug-In . SVG Version: 6.00 Build 0)  -->
<svg version="1.1" id="Layer_1" xmlns="http://www.w3.org/2000/svg" xmlns:xlink="http://www.w3.org/1999/xlink" x="0px" y="0px"
	 viewBox="0 0 112 105" style="enable-background:new 0 0 112 105;" xml:space="preserve">
<style type="text/css">
	.st0{fill:none;stroke:#FFFFFF;stroke-width:3;}
	.st1{fill:#84151E;stroke:#84151E;stroke-width:2;stroke-miterlimit:10;}
	.st2{fill:#FF0000;stroke:#FF0000;stroke-width:2;stroke-miterlimit:10;}
</style>
<g>
	<polygon class="st0" points="69.3,25.8 29.5,3 29.5,75 69.3,102.7 109.8,75 109.8,3 	"/>
	<g>
		<g id="kRW930.tif">
			<g>
				<path class="st1" d="M34.5,18.3c1.8,0,3.6,0,5.5,0c1.2,0.2,2.5,0.3,3.7,0.5c14.5,2.6,26.3,14.1,29.3,28.5
					c0.3,1.5,0.5,3.1,0.7,4.6c0,1.8,0,3.6,0,5.5c-0.2,1.4-0.3,2.8-0.6,4.2c-2.8,14.3-14.1,25.8-28.4,28.7c-1.5,0.3-3.1,0.5-4.6,0.7
					c-1.8,0-3.6,0-5.5,0c-1.3-0.2-2.6-0.3-3.8-0.5c-8-1.5-14.7-5.3-20.2-11.2c-4.6-5-7.5-10.8-8.9-17.4c-0.3-1.5-0.5-3-0.7-4.5
					c0-1.8,0-3.6,0-5.5c0-0.1,0.1-0.3,0.1-0.4c0.4-5.1,1.8-9.9,4.4-14.4C10.8,27.4,19,21.4,30,19C31.5,18.6,33,18.5,34.5,18.3z
					 M70.6,57.2c0-1.1,0-1.1-0.8-1.1c-1.4,0-2.8,0-4.2,0c-2.9,0-5.8,0-8.7,0c-0.7,0-0.7,0-0.7,0.7c-0.1,1.1-0.1,2.2-0.2,3.3
					c-0.3,4-0.9,8-2,11.9c-0.2,0.7-0.2,0.7,0.5,0.8c2.8,0.8,5.5,1.8,7.9,3.4c0.3,0.2,0.5,0.1,0.7-0.1c1.5-1.8,2.8-3.7,3.8-5.7
					C69,66.1,70.3,61.7,70.6,57.2z M3.8,56.9c0.2,3.3,0.9,6.4,2,9.4c1.3,3.5,3.2,6.8,5.6,9.7c0.2,0.2,0.4,0.3,0.7,0.1
					c2.4-1.6,5.1-2.6,7.9-3.4c0.7-0.2,0.7-0.2,0.5-0.9c-1.4-5-2-10-2.2-15.1c0-0.7,0-0.7-0.7-0.7c-4.2,0-8.3,0-12.5,0
					c-0.3,0-0.5,0-0.8,0c-0.3,0-0.5,0.1-0.5,0.5C3.8,56.7,3.8,56.9,3.8,56.9z M63.4,53.2c2.2,0,4.4,0,6.6,0c0.5,0,0.7-0.1,0.6-0.6
					c-0.1-1.6-0.3-3.2-0.6-4.7c-1.1-5.4-3.5-10.2-7-14.5c-0.2-0.2-0.3-0.3-0.6-0.2c-2.5,1.6-5.2,2.6-8,3.3c-0.5,0.1-0.6,0.3-0.4,0.8
					c1.4,5,2.1,10.1,2.2,15.3c0,0.5,0.2,0.6,0.7,0.6C59,53.2,61.2,53.2,63.4,53.2z M11,53.2c2.2,0,4.5,0,6.7,0
					c0.4,0,0.6-0.1,0.6-0.6c0-1.2,0.1-2.3,0.2-3.5c0.3-4,0.9-7.9,2-11.8c0.2-0.7,0.2-0.7-0.5-0.9c-2.8-0.8-5.5-1.8-7.9-3.3
					c-0.3-0.2-0.5-0.1-0.7,0.2c-1.4,1.7-2.7,3.6-3.7,5.5c-2.3,4.3-3.6,8.8-3.9,13.7c0,0.6,0,0.7,0.6,0.7C6.6,53.2,8.8,53.2,11,53.2z
					 M35.7,63.4c0-2.2,0-4.4,0-6.7c0-0.5-0.2-0.6-0.6-0.6c-1.8,0-3.7,0-5.5,0c-2.6,0-5.2,0-7.9,0c-0.4,0-0.5,0.1-0.5,0.5
					c0.1,1.3,0.1,2.7,0.2,4c0.3,3.7,1,7.3,1.9,10.8c0.1,0.4,0.3,0.6,0.7,0.5c3.6-0.7,7.3-1.1,11-1.2c0.5,0,0.6-0.2,0.6-0.6
					C35.7,67.8,35.7,65.6,35.7,63.4z M46,56.1c-2.2,0-4.5,0-6.7,0c-0.4,0-0.6,0-0.6,0.5c0,4.5,0,9.1,0,13.6c0,0.3,0.1,0.5,0.5,0.5
					c0.6,0,1.2,0.1,1.8,0.1c3.1,0.1,6.2,0.5,9.2,1c0.7,0.1,0.7,0.1,0.9-0.6c1.3-4.8,2-9.6,2.2-14.5c0-0.5-0.1-0.6-0.6-0.6
					C50.4,56.1,48.2,56.1,46,56.1z M35.7,45.9c0-2.2,0-4.4,0-6.7c0-0.5-0.1-0.6-0.6-0.7c-3.7-0.1-7.3-0.4-11-1.1
					c-0.4-0.1-0.6,0-0.8,0.5c-0.3,1.2-0.6,2.5-0.9,3.7c-0.7,3.6-1.2,7.3-1.3,11c0,0.5,0.1,0.6,0.6,0.6c4.4,0,8.9,0,13.3,0
					c0.6,0,0.6,0,0.6-0.7C35.8,50.3,35.7,48.1,35.7,45.9z M45.9,53.2c2.3,0,4.5,0,6.8,0c0.4,0,0.5-0.1,0.5-0.5
					c-0.1-1.7-0.2-3.4-0.3-5.1c-0.3-3.3-0.9-6.5-1.8-9.7c-0.1-0.4-0.3-0.6-0.8-0.5c-3.6,0.7-7.3,1-11,1.1c-0.5,0-0.6,0.2-0.6,0.7
					c0,4.4,0,8.9,0,13.3c0,0.6,0,0.7,0.6,0.7C41.5,53.2,43.7,53.2,45.9,53.2z M35.7,28.5c0-2.1,0-4.3,0-6.4c0-0.8,0-0.8-0.8-0.6
					c-1.9,0.6-3.4,1.7-4.7,3.1c-2.6,2.7-4.3,6-5.6,9.5c-0.1,0.3,0,0.4,0.3,0.5c3.4,0.6,6.8,0.9,10.2,1c0.5,0,0.6-0.2,0.6-0.6
					C35.7,32.9,35.7,30.7,35.7,28.5z M38.6,28.5c0,2.2,0,4.3,0,6.5c0,0.6,0,0.7,0.7,0.6c0.9,0,1.8-0.1,2.8-0.1
					c2.5-0.1,4.9-0.4,7.3-0.9c0.4-0.1,0.5-0.2,0.3-0.6c-1.2-3.2-2.8-6.2-5-8.9c-1.5-1.7-3.1-3-5.3-3.7c-0.7-0.2-0.8-0.2-0.8,0.5
					C38.6,24.2,38.6,26.4,38.6,28.5z M35.7,80.9c0-2.2,0-4.4,0-6.6c0-0.5-0.2-0.6-0.6-0.6c-0.9,0.1-1.8,0.1-2.7,0.1
					c-2.5,0.1-5,0.5-7.4,0.9c-0.4,0.1-0.4,0.2-0.3,0.6c1.2,3.2,2.8,6.3,5.1,8.9c1.5,1.7,3.2,3.1,5.4,3.7c0.6,0.2,0.7,0.1,0.7-0.5
					C35.8,85.2,35.7,83,35.7,80.9z M38.6,80.8c0,2.2,0,4.3,0,6.5c0,0.7,0.1,0.7,0.7,0.5c1.6-0.5,2.9-1.3,4.1-2.5
					c3-2.8,4.8-6.4,6.3-10.2c0.1-0.4,0-0.5-0.4-0.5c-3.3-0.6-6.7-0.9-10.1-1c-0.5,0-0.6,0.2-0.6,0.7C38.7,76.5,38.6,78.6,38.6,80.8z
					 M28.1,22.6c-0.1,0-0.1-0.1-0.2-0.1c-0.1,0-0.3,0.1-0.4,0.1c-5.1,1.5-9.5,4.1-13.4,7.8c-0.4,0.4-0.4,0.4,0.1,0.7
					c2.1,1.2,4.4,2,6.7,2.6c0.5,0.1,0.7,0,0.8-0.4c1.3-3.4,2.9-6.6,5.2-9.5C27.3,23.4,27.7,23,28.1,22.6z M46.3,22.6
					c0,0.1,0.1,0.1,0.1,0.2c2.8,3,4.6,6.5,6.1,10.2c0.4,1,0.4,1,1.4,0.7c2.2-0.6,4.4-1.4,6.3-2.6c0.3-0.1,0.5-0.2,0.1-0.6
					c-3.9-3.7-8.5-6.4-13.7-7.9C46.6,22.5,46.5,22.5,46.3,22.6z M46.4,86.8c0.2,0.1,0.3,0,0.5-0.1c5-1.5,9.5-4.1,13.3-7.7
					c0.4-0.4,0.4-0.4-0.1-0.7c-2-1.2-4.3-2-6.5-2.6c-0.7-0.2-0.7-0.2-0.9,0.5c-1.4,3.8-3.3,7.4-6.1,10.4
					C46.4,86.6,46.3,86.7,46.4,86.8z M28,86.8c-0.7-0.8-1.3-1.6-1.9-2.5c-1.9-2.6-3.2-5.4-4.3-8.3c-0.1-0.3-0.2-0.6-0.6-0.4
					c-2.4,0.7-4.7,1.5-6.8,2.7c-0.5,0.3-0.5,0.3-0.1,0.7c3.1,2.9,6.6,5.1,10.5,6.7C25.8,86.1,26.9,86.6,28,86.8z"/>
			</g>
		</g>
		<g id="kRW930.tif_1_">
			<g>
				<path class="st2" d="M35.9,16.3c1.8,0,3.6,0,5.5,0c1.2,0.2,2.5,0.3,3.7,0.5c14.5,2.6,26.3,14.1,29.3,28.5
					c0.3,1.5,0.5,3.1,0.7,4.6c0,1.8,0,3.6,0,5.5c-0.2,1.4-0.3,2.8-0.6,4.2c-2.8,14.3-14.1,25.8-28.4,28.7c-1.5,0.3-3.1,0.5-4.6,0.7
					c-1.8,0-3.6,0-5.5,0c-1.3-0.2-2.6-0.3-3.8-0.5c-8-1.5-14.7-5.3-20.2-11.2c-4.6-5-7.5-10.8-8.9-17.4c-0.3-1.5-0.5-3-0.7-4.5
					c0-1.8,0-3.6,0-5.5c0-0.1,0.1-0.3,0.1-0.4c0.4-5.1,1.8-9.9,4.4-14.4c5.5-9.7,13.8-15.8,24.7-18.2C32.9,16.6,34.4,16.5,35.9,16.3
					z M72,55.2c0-1.1,0-1.1-0.8-1.1c-1.4,0-2.8,0-4.2,0c-2.9,0-5.8,0-8.7,0c-0.7,0-0.7,0-0.7,0.7c-0.1,1.1-0.1,2.2-0.2,3.3
					c-0.3,4-0.9,8-2,11.9c-0.2,0.7-0.2,0.7,0.5,0.8c2.8,0.8,5.5,1.8,7.9,3.4c0.3,0.2,0.5,0.1,0.7-0.1c1.5-1.8,2.8-3.7,3.8-5.7
					C70.4,64.1,71.7,59.7,72,55.2z M5.2,54.9c0.2,3.3,0.9,6.4,2,9.4c1.3,3.5,3.2,6.8,5.6,9.7c0.2,0.2,0.4,0.3,0.7,0.1
					c2.4-1.6,5.1-2.6,7.9-3.4c0.7-0.2,0.7-0.2,0.5-0.9c-1.4-5-2-10-2.2-15.1c0-0.7,0-0.7-0.7-0.7c-4.2,0-8.3,0-12.5,0
					c-0.3,0-0.5,0-0.8,0c-0.3,0-0.5,0.1-0.5,0.5C5.2,54.7,5.2,54.8,5.2,54.9z M64.8,51.2c2.2,0,4.4,0,6.6,0c0.5,0,0.7-0.1,0.6-0.6
					c-0.1-1.6-0.3-3.2-0.6-4.7c-1.1-5.4-3.5-10.2-7-14.5c-0.2-0.2-0.3-0.3-0.6-0.2c-2.5,1.6-5.2,2.6-8,3.3c-0.5,0.1-0.6,0.3-0.4,0.8
					c1.4,5,2.1,10.1,2.2,15.3c0,0.5,0.2,0.6,0.7,0.6C60.4,51.2,62.6,51.2,64.8,51.2z M12.4,51.2c2.2,0,4.5,0,6.7,0
					c0.4,0,0.6-0.1,0.6-0.6c0-1.2,0.1-2.3,0.2-3.5c0.3-4,0.9-7.9,2-11.8c0.2-0.7,0.2-0.7-0.5-0.9c-2.8-0.8-5.5-1.8-7.9-3.3
					c-0.3-0.2-0.5-0.1-0.7,0.2c-1.4,1.7-2.7,3.6-3.7,5.5c-2.3,4.3-3.6,8.8-3.9,13.7c0,0.6,0,0.7,0.6,0.7C8,51.2,10.2,51.2,12.4,51.2
					z M37.2,61.4c0-2.2,0-4.4,0-6.7c0-0.5-0.2-0.6-0.6-0.6c-1.8,0-3.7,0-5.5,0c-2.6,0-5.2,0-7.9,0c-0.4,0-0.5,0.1-0.5,0.5
					c0.1,1.3,0.1,2.7,0.2,4c0.3,3.7,1,7.3,1.9,10.8c0.1,0.4,0.3,0.6,0.7,0.5c3.6-0.7,7.3-1.1,11-1.2c0.5,0,0.6-0.2,0.6-0.6
					C37.2,65.8,37.2,63.6,37.2,61.4z M47.4,54.1c-2.2,0-4.5,0-6.7,0c-0.4,0-0.6,0-0.6,0.5c0,4.5,0,9.1,0,13.6c0,0.3,0.1,0.5,0.5,0.5
					c0.6,0,1.2,0.1,1.8,0.1c3.1,0.1,6.2,0.5,9.2,1c0.7,0.1,0.7,0.1,0.9-0.6c1.3-4.8,2-9.6,2.2-14.5c0-0.5-0.1-0.6-0.6-0.6
					C51.8,54.1,49.6,54.1,47.4,54.1z M37.2,43.9c0-2.2,0-4.4,0-6.7c0-0.5-0.1-0.6-0.6-0.7c-3.7-0.1-7.3-0.4-11-1.1
					c-0.4-0.1-0.6,0-0.8,0.5c-0.3,1.2-0.6,2.5-0.9,3.7c-0.7,3.6-1.2,7.3-1.3,11c0,0.5,0.1,0.6,0.6,0.6c4.4,0,8.9,0,13.3,0
					c0.6,0,0.6,0,0.6-0.7C37.2,48.3,37.2,46.1,37.2,43.9z M47.3,51.2c2.3,0,4.5,0,6.8,0c0.4,0,0.5-0.1,0.5-0.5
					c-0.1-1.7-0.2-3.4-0.3-5.1c-0.3-3.3-0.9-6.5-1.8-9.7c-0.1-0.4-0.3-0.6-0.8-0.5c-3.6,0.7-7.3,1-11,1.1c-0.5,0-0.6,0.2-0.6,0.7
					c0,4.4,0,8.9,0,13.3c0,0.6,0,0.7,0.6,0.7C42.9,51.2,45.1,51.2,47.3,51.2z M37.2,26.5c0-2.1,0-4.3,0-6.4c0-0.8,0-0.8-0.8-0.6
					c-1.9,0.6-3.4,1.7-4.7,3.1c-2.6,2.7-4.3,6-5.6,9.5c-0.1,0.3,0,0.4,0.3,0.5c3.4,0.6,6.8,0.9,10.2,1c0.5,0,0.6-0.2,0.6-0.6
					C37.2,30.8,37.2,28.7,37.2,26.5z M40.1,26.5c0,2.2,0,4.3,0,6.5c0,0.6,0,0.7,0.7,0.6c0.9,0,1.8-0.1,2.8-0.1
					c2.5-0.1,4.9-0.4,7.3-0.9c0.4-0.1,0.5-0.2,0.3-0.6c-1.2-3.2-2.8-6.2-5-8.9c-1.5-1.7-3.1-3-5.3-3.7c-0.7-0.2-0.8-0.2-0.8,0.5
					C40.1,22.2,40.1,24.3,40.1,26.5z M37.2,78.8c0-2.2,0-4.4,0-6.6c0-0.5-0.2-0.6-0.6-0.6c-0.9,0.1-1.8,0.1-2.7,0.1
					c-2.5,0.1-5,0.5-7.4,0.9c-0.4,0.1-0.4,0.2-0.3,0.6c1.2,3.2,2.8,6.3,5.1,8.9c1.5,1.7,3.2,3.1,5.4,3.7c0.6,0.2,0.7,0.1,0.7-0.5
					C37.2,83.1,37.2,81,37.2,78.8z M40.1,78.8c0,2.2,0,4.3,0,6.5c0,0.7,0.1,0.7,0.7,0.5c1.6-0.5,2.9-1.3,4.1-2.5
					c3-2.8,4.8-6.4,6.3-10.2c0.1-0.4,0-0.5-0.4-0.5c-3.3-0.6-6.7-0.9-10.1-1c-0.5,0-0.6,0.2-0.6,0.7C40.1,74.4,40.1,76.6,40.1,78.8z
					 M29.5,20.5c-0.1,0-0.1-0.1-0.2-0.1c-0.1,0-0.3,0.1-0.4,0.1c-5.1,1.5-9.5,4.1-13.4,7.8c-0.4,0.4-0.4,0.4,0.1,0.7
					c2.1,1.2,4.4,2,6.7,2.6c0.5,0.1,0.7,0,0.8-0.4c1.3-3.4,2.9-6.6,5.2-9.5C28.7,21.4,29.1,21,29.5,20.5z M47.7,20.5
					c0,0.1,0.1,0.1,0.1,0.2c2.8,3,4.6,6.5,6.1,10.2c0.4,1,0.4,1,1.4,0.7c2.2-0.6,4.4-1.4,6.3-2.6c0.3-0.1,0.5-0.2,0.1-0.6
					c-3.9-3.7-8.5-6.4-13.7-7.9C48,20.5,47.9,20.4,47.7,20.5z M47.8,84.8c0.2,0.1,0.3,0,0.5-0.1c5-1.5,9.5-4.1,13.3-7.7
					c0.4-0.4,0.4-0.4-0.1-0.7c-2-1.2-4.3-2-6.5-2.6c-0.7-0.2-0.7-0.2-0.9,0.5c-1.4,3.8-3.3,7.4-6.1,10.4
					C47.8,84.6,47.7,84.6,47.8,84.8z M29.5,84.8c-0.7-0.8-1.3-1.6-1.9-2.5c-1.9-2.6-3.2-5.4-4.3-8.3c-0.1-0.3-0.2-0.6-0.6-0.4
					c-2.4,0.7-4.7,1.5-6.8,2.7c-0.5,0.3-0.5,0.3-0.1,0.7c3.1,2.9,6.6,5.1,10.5,6.7C27.2,84.1,28.3,84.5,29.5,84.8z"/>
			</g>
		</g>
	</g>
</g>
</svg>
