<svg xmlns="http://www.w3.org/2000/svg" width="115" height="105" viewBox="0 0 115 105">
  <g fill="none" fill-rule="evenodd" transform="translate(0 3)">
    <polygon stroke="#FFF" stroke-width="3" points="72.128 22.831 32.057 0 32.057 72.003 72.128 99.673 112.786 72.003 112.786 0"/>
    <path fill="#84151E" d="M24.8075615,59.5041174 C24.8019938,68.2746535 31.7187802,75.3071976 40.3532102,75.3099954 C49.0021163,75.3127932 56.0681178,68.2662601 56.0876048,59.6188271 C56.1070919,50.8986514 49.1457636,43.8784176 40.4751434,43.8733816 C31.7059744,43.8689051 24.8131292,50.7453321 24.8075615,59.5041174 Z M0,54.5217994 C0.94484316,52.5426373 1.88912955,51.1185583 2.36127274,50.1695454 C2.60903656,49.6715374 9.32538485,51.0827465 9.47794055,50.5936915 C10.1560896,48.4125285 11.1315553,46.3611832 12.3141403,44.4211904 C12.8013164,43.6226989 12.7417417,42.993754 12.3436493,42.2025368 C11.284111,40.0957952 10.3298027,37.936455 9.27583208,35.826356 C8.90001056,35.0726293 9.25022054,34.7536804 9.57147835,33.9490338 C9.91667738,33.0850739 10.8609638,31.6609949 11.8052502,29.762969 C12.5001024,29.0316247 16.0539821,27.9052313 16.9542835,28.3663084 C19.0861659,29.4574495 21.2748391,30.4361191 23.4145164,31.5138307 C24.0848706,31.8512451 24.6305078,31.836137 25.2780344,31.4757807 C27.1855374,30.4154154 29.2066221,29.6124475 31.3140065,29.0551262 C32.0973856,28.8480891 32.4899103,28.390929 32.7460257,27.6562273 C33.5060203,25.4705878 34.3411793,23.3106881 35.0883682,21.1205721 C35.3773332,20.2722798 37.3516489,15.9843752 38.2491664,16.0000428 C40.6872738,16.0436885 41.6226518,19.9980957 44.0602024,19.9438184 C45.0429061,19.921436 45.4816429,20.3601307 45.7767324,21.232484 C46.4899582,23.3403447 47.2905972,25.4179892 48.0138449,27.5230522 C48.2983557,28.3523194 48.7660447,28.8352193 49.6407345,29.0803063 C51.7330861,29.6667247 53.7898042,30.3818418 55.6950801,31.4578748 C56.3581963,31.8322201 56.9494889,31.7046405 57.5847664,31.3952041 C59.6982754,30.3639359 61.8479745,29.4054104 63.9325312,28.3198649 C64.8578874,27.8380842 65.4352606,28.0059521 66.11508,28.7322603 C67.7564457,30.4836816 69.4456939,32.1908978 71.1677916,33.8611829 C71.8236698,34.4974021 71.8938231,35.0468896 71.4879359,35.8526553 C70.4061267,37.997447 69.4256501,40.1942777 68.3549763,42.3452245 C67.9824954,43.0933556 67.9574406,43.7206218 68.372793,44.4715507 C69.3877895,46.3085846 70.113821,48.2754364 70.6377441,50.307197 C70.8465338,51.1163201 71.2518643,51.5813141 72.0686497,51.8588556 C74.2088838,52.586283 76.3062463,53.4396113 78.4392422,54.189421 C79.2543574,54.4764751 82.1685053,58.8628622 81.6924647,59.6607941 C80.2760351,62.033886 78.8590488,64.8814845 78.8590488,64.8814845 C78.8590488,64.8814845 74.2261437,66.4946946 72.0519466,67.2612912 C71.3125525,67.5220459 70.8771563,67.9327626 70.6833994,68.7127886 C70.1338648,70.9224891 69.3655186,73.0588874 68.3054235,75.0766591 C67.9919605,75.6737091 68.1473001,76.1644428 68.4089832,76.7128111 C69.44291,78.8822234 70.4128079,81.0824115 71.4840385,83.2327988 C71.9044018,84.0766145 71.8799038,84.664152 71.1750297,85.3406595 C69.4122875,87.0333271 67.6929736,88.7735572 65.999828,90.5367293 C65.3756859,91.1869374 64.8144591,91.2731096 64.0104794,90.8685481 C61.910333,89.8115401 59.7561797,88.8636463 57.6582604,87.8027214 C56.8960387,87.4171849 56.3025191,87.446282 55.5653521,87.8698686 C53.6389188,88.9777964 51.6250722,89.9206542 49.4776001,90.5143469 C48.6925507,90.731456 48.0377861,94.5622005 47.6931438,95.2538161 C46.7488574,97.1524016 46.2767143,98.1014145 45.2516958,100 L35.4029447,100 C34.4625557,97.170867 33.5171558,94.3439723 32.586232,91.5120415 C32.4141892,90.990532 32.0673199,90.7353729 31.5606568,90.5831727 C29.2979328,89.9016292 27.1615962,88.9207214 25.1477496,87.6885713 C24.4818495,87.2812119 23.94178,87.3657054 23.2936967,87.686333 C21.1467814,88.7489366 18.9625624,89.7376783 16.8234419,90.8159495 C16.0300409,91.2149154 15.4727115,91.1707102 14.8379907,90.5053939 C13.1186768,88.7052909 11.3603888,86.9409997 9.56980803,85.2125204 C8.95847168,84.6227446 8.85212811,84.1073903 9.22572255,83.3435915 C10.2802499,81.1842513 11.2490343,78.9823846 12.3063455,76.824723 C12.6582258,76.1062486 12.6359549,75.5377361 12.2334083,74.8399654 C11.142134,72.9486542 10.1922798,70.9750877 9.5826138,68.872263 C9.31146553,67.9355604 8.7708393,67.4974253 7.90116045,67.2036565 C5.25593367,66.31004 2.63242101,65.3526336 0,64.4198479 L0,54.5217994 Z"/>
    <path fill="#F00" d="M27.36303,55.5329292 C27.3579885,64.2972252 34.3163756,71.3247659 43.0034363,71.3275617 C51.7050614,71.3303575 58.8141333,64.2888378 58.8337391,55.6475573 C58.853345,46.9335858 51.8501445,39.9183467 43.1261128,39.9133143 C34.3034918,39.908841 27.3686316,46.7803756 27.36303,55.5329292 Z M2.40425532,50.554156 C5.34064765,49.7830724 8.15044237,48.6356732 11.0291376,47.6918087 C11.5584948,47.5184687 11.7864825,47.1175499 11.9399681,46.6288428 C12.6222508,44.4492317 13.6036624,42.3993459 14.7934558,40.4607333 C15.2836015,39.6628099 15.2236637,39.0343125 14.8231447,38.2436583 C13.757148,36.1384155 12.7970228,33.9806116 11.7371879,31.8725731 C11.3585154,31.1188235 11.4089304,30.5960076 12.0340761,29.9965866 C13.8025215,28.2995317 15.544639,26.5728412 17.2380221,24.8008587 C17.9365496,24.0700347 18.5566538,23.9565249 19.4618827,24.417274 C21.6067599,25.5076387 23.8087741,26.485612 25.9614936,27.5625569 C26.635934,27.8997312 27.184897,27.8846339 27.8363706,27.5250931 C29.7555007,26.4649231 31.7889048,25.6625264 33.9091346,25.1056017 C34.6972888,24.8987119 35.0927663,24.4418771 35.3498827,23.7076981 C36.11507,21.5236136 36.9547594,19.3652506 37.7065028,17.1766928 C37.9977893,16.3290041 38.4705697,15.9873565 39.3729978,16.0035721 C41.8259665,16.0471867 44.2806158,16.0555742 46.7330243,16.0007763 C47.721718,15.978969 48.1631292,16.4167924 48.4600174,17.2885251 C49.1775905,19.3948861 49.9831098,21.4710525 50.710766,23.5746177 C50.9975712,24.4038541 51.4675508,24.8864104 52.3481324,25.1313231 C54.4526776,25.7167651 56.5219324,26.4313734 58.4388218,27.5066408 C59.10598,27.8807198 59.7008767,27.753231 60.3400266,27.4440147 C62.4664183,26.4134802 64.6292208,25.4561959 66.7264839,24.3708636 C67.6574805,23.8894256 68.238373,24.057174 68.9223362,24.7829655 C70.5737068,26.5331407 72.2732517,28.2391422 74.0064066,29.9082391 C74.6657224,30.5440056 74.7363034,31.0931021 74.3279421,31.8982945 C73.2395388,34.0421194 72.2530857,36.2368279 71.1758857,38.3862444 C70.8011344,39.1338432 70.7759269,39.7606632 71.193811,40.5110578 C72.2149944,42.3467847 72.9454514,44.3122371 73.4731281,46.3425522 C73.6831905,47.1510996 74.0904315,47.6163219 74.9121957,47.8931068 C77.0660355,48.6200166 79.1756222,49.4727378 81.3216197,50.2225733 C82.1417034,50.5088639 82.5629485,50.9220842 82.5455833,51.8519696 C82.4985294,54.3447112 82.507492,56.8391303 82.5399817,59.332431 C82.551185,60.1728506 82.2268487,60.6291264 81.4297319,60.9070296 C79.2411617,61.6708441 77.0828405,62.5185328 74.8953907,63.2845839 C74.1514897,63.5451531 73.7134395,63.9555776 73.5185016,64.7350486 C72.9661775,66.9431771 72.1925877,69.0780553 71.1260309,71.0943914 C70.8106572,71.6910166 70.9669436,72.1814012 71.2302218,72.7293794 C72.2704509,74.8972482 73.2468209,77.0958709 74.3240209,79.2447282 C74.7469466,80.0879436 74.7228594,80.6750631 74.0131286,81.3510892 C72.2396417,83.0425525 70.5098478,84.7815445 68.8063818,86.5434621 C68.1789954,87.1932077 67.6137875,87.2793186 66.8049072,86.8750449 C64.6925196,85.818789 62.5246756,84.8715695 60.4139686,83.8113995 C59.6471008,83.4261373 59.0499634,83.4552137 58.308303,83.879058 C56.3701273,84.9856384 54.3440053,85.9278254 52.1834435,86.5210957 C51.3936089,86.7380503 51.02726,87.2138967 50.7768656,87.9452798 C49.8525911,90.6387604 48.8840633,93.3160252 47.9317804,96 L38.0229968,96 C37.0768757,93.1728799 36.1262733,90.3479964 35.1891149,87.5180805 C35.0160235,86.9975012 34.6670398,86.7419644 34.1572884,86.5898725 C31.8807721,85.9088139 29.7314136,84.928604 27.7052916,83.6973305 C27.0353326,83.290261 26.4919712,83.3746944 25.8399375,83.6950939 C23.6799358,84.7569414 21.4829631,85.7449796 19.3302436,86.8224837 C18.5325666,87.2211658 17.9712799,87.176992 17.3326902,86.5127083 C15.6028963,84.713886 13.8338908,82.9502909 12.0323956,81.2230413 C11.4173329,80.6336852 11.3103411,80.1186975 11.6862128,79.3554422 C12.7477281,77.1976383 13.7218575,74.9978972 14.7856135,72.8412117 C15.1396387,72.1232484 15.117232,71.5551404 14.7122317,70.8578661 C13.6143056,68.9679005 12.6592218,66.9957382 12.0452794,64.8944096 C11.7724784,63.9583734 11.229117,63.52055 10.3535769,63.2269903 C7.69222625,62.3340095 5.05272211,61.3772843 2.40425532,60.4451623 L2.40425532,50.554156 Z"/>
  </g>
</svg>
