<svg xmlns="http://www.w3.org/2000/svg" viewBox="0 0 420.6 246.3"><style>.st0{enable-background:new}.st1{clip-path:url(#SVGID_2_)}.st2{fill:#fff}.st3{fill:none;stroke:#fff;stroke-width:2;stroke-linecap:round;stroke-miterlimit:10}.st4{fill:#2d313a}.st5{fill:#616c84}.st6{fill:#f9f9f9}.st7{fill:#9dd2f9}.st8{opacity:.2;fill:#fff}.st9{fill:none;stroke:#4c977e;stroke-width:4;stroke-linecap:round;stroke-linejoin:round;stroke-miterlimit:10}</style><g class="st0" id="OBJECTS"><path class="st3" d="M258 90.2l18.1-10 15.1 8.7c.4.2.9.4 1.4.4.5 0 1-.1 1.4-.3l48.9-27M245.9 83.3l26.4-14.6c.4-.2.6-.5.5-.8 0-.3-.3-.6-.6-.8l-6.3-3.7 17.2-9.5M220.7 68.7l34-18.8c.4-.2.6-.5.5-.8 0-.3-.2-.6-.6-.8l-25.8-14.9 24.5-13.5M191.2 58.3l-28.6-16.5 50.8-28.1c.4-.2.6-.5.5-.8 0-.3-.2-.6-.6-.8M213.4 12.2L194 1M166.4 71.1l-41.9-24.2 22.6-12.5c.4-.2.6-.5.5-.8 0-.3-.2-.6-.6-.8M147.1 32.8l-31.7-18.3M136.6 87.6L87.8 59.5l14.9-8.3c.4-.2.6-.5.5-.8 0-.3-.2-.6-.6-.8M102.7 49.7L60.8 25.5M109.8 102.4L77.7 83.8c-.4-.2-.9-.4-1.4-.4-.5 0-1 .1-1.4.3l-11.8 6.5-41.4-23.9M102.1 134.2l2.6-1.4c-.1-.1-.2-.2-.4-.3M104.3 132.4L53 102.8c-.4-.2-.9-.4-1.4-.4-.5 0-1 .1-1.4.3l-27.2 15-22-12.6"/><path class="st3" d="M123.5 125.6l-2.9-1.7-15.9 8.8-2.6 1.4-26.3 14.5-27.3-15.8c-.4-.2-.9-.4-1.4-.4-.5 0-1 .1-1.4.3l-21 11.6M152.7 142.4l-2.9-1.7-34 18.8-13.2-7.6c-.4-.2-.9-.4-1.4-.4-.5 0-1 .1-1.4.3L68 169.4M170.7 152.8l-2.9-1.7-45.3 25c-.4.2-.6.5-.5.8 0 .3.3.6.6.8l6.8 3.9-20.5 11.4M305.8 117.8c.1 0 .1.1.2.1l27.2-15 66.9 38.6c.4.2.9.4 1.4.4.5 0 1-.1 1.4-.3l16.8-9.2M285.2 140.7l51.9 30c.4.2.9.4 1.4.4.5 0 1-.1 1.4-.3l29-16 8.8 5.1M263.2 152.8L338 196c.4.2.9.4 1.4.4.5 0 1-.1 1.4-.3l22.2-12.2 21.9 12.7M228.4 172.1l-2.7 1.5 25.6 14.8-28.5 15.7c-.4.2-.6.5-.5.8 0 .3.3.6.6.8l54.1 31.2M186.9 162.2l-2.2-1.3c-.5 0-.9.1-1.3.3l-36.7 20.2c-.4.2-.6.5-.5.8 0 .3.2.6.6.8l38.5 22.2-28.2 15.6c-.4.2-.6.5-.5.8 0 .3.2.6.6.8l39.5 22.8"/><path class="st3" d="M305.8 117.8l-2.7-1.6-45-26-2.9-1.7-9.1-5.3-2.9-1.7-22.3-12.9-2.9-1.7-11.2-6.5c-4.3-2.5-10.4-3.2-15.4-2.2-1.2.3-2.4.6-3.4 1.1-.3.1-.6.3-1 .5l-20.4 11.3-2.7 1.5-27.2 15-2.7 1.5-24 13.2-2.7 1.5-1.4.7c-5.3 2.9-4.9 7.9.7 11.2l14.1 8.2 2.9 1.7 26.2 15.1 2.9 1.7 15.1 8.7 2.9 1.7 14 8.1 2.2 1.3 18.8 10.8c5.7 3.3 14.5 3.6 19.7.7l.2-.1 2.7-1.5 13.1-7.2 2.7-1.5 19-10.5 2.7-1.5 19.2-10.6 2.7-1.5 18.6-10.3c5.2-2.9 4.9-7.8-.6-11.1.2 0 .1-.1.1-.1"/></g></svg>